<svg xmlns="http://www.w3.org/2000/svg" width="374.56927490234375" height="512.7042846679688" viewBox="-217.32371520996094 -167.82252502441406 374.56927490234375 512.7042846679688"><g class="layer relationships"><g class="relationship" transform="translate(118.90296157968908 81.45252560568962) rotate(521.5877905474287)"><path class="outline" fill="#A5ABB6" stroke="none" d="M 32.5 0.5 L 121.14310186963093 0.5 L 121.14310186963093 -0.5 L 32.5 -0.5 Z M 172.35013311963093 0.5 L 260.99323498926185 0.5 L 260.99323498926185 3.5 L 267.99323498926185 0 L 260.99323498926185 -3.5 L 260.99323498926185 -0.5 L 172.35013311963093 -0.5 Z"/><text text-anchor="middle" pointer-events="none" font-size="8px" fill="#000000" x="146.74661749463093" y="3" transform="rotate(180 146.74661749463093 0)" font-family="sans-serif">SERVED_IN</text></g><g class="relationship" transform="translate(117.88677388475799 308.3817626048208) rotate(203.99900409387465)"><path class="outline" fill="#A5ABB6" stroke="none" d="M 32.5 0.5 L 126.5300297932628 0.5 L 126.5300297932628 -0.5 L 32.5 -0.5 Z M 177.7370610432628 0.5 L 271.7670908365256 0.5 L 271.7670908365256 3.5 L 278.7670908365256 0 L 271.7670908365256 -3.5 L 271.7670908365256 -0.5 L 177.7370610432628 -0.5 Z"/><text text-anchor="middle" pointer-events="none" font-size="8px" fill="#000000" x="152.1335454182628" y="3" transform="rotate(180 152.1335454182628 0)" font-family="sans-serif">SERVED_IN</text></g><g class="relationship" transform="translate(120.74556558027588 183.1939813852897) rotate(180.86918483827662)"><path class="outline" fill="#A5ABB6" stroke="none" d="M 32.5 0.5 L 114.19804134359097 0.5 L 114.19804134359097 -0.5 L 32.5 -0.5 Z M 165.40507259359097 0.5 L 247.10311393718194 0.5 L 247.10311393718194 3.5 L 254.10311393718194 0 L 247.10311393718194 -3.5 L 247.10311393718194 -0.5 L 165.40507259359097 -0.5 Z"/><text text-anchor="middle" pointer-events="none" font-size="8px" fill="#000000" x="139.80155696859097" y="3" transform="rotate(180 139.80155696859097 0)" font-family="sans-serif">SERVED_IN</text></g><g class="relationship" transform="translate(118.90296157968908 81.45252560568962) rotate(197.8497142173179)"><path class="outline" fill="#A5ABB6" stroke="none" d="M 32.5 0.5 L 120.42132817080957 0.5 L 120.42132817080957 -0.5 L 32.5 -0.5 Z M 171.62835942080957 0.5 L 259.54968759161915 0.5 L 259.54968759161915 3.5 L 266.54968759161915 0 L 259.54968759161915 -3.5 L 259.54968759161915 -0.5 L 171.62835942080957 -0.5 Z"/><text text-anchor="middle" pointer-events="none" font-size="8px" fill="#000000" x="146.02484379580957" y="3" transform="rotate(180 146.02484379580957 0)" font-family="sans-serif">SERVED_IN</text></g><g class="relationship" transform="translate(116.90127723435526 -21.645787467468963) rotate(538.1946237937123)"><path class="outline" fill="#A5ABB6" stroke="none" d="M 32.5 0.5 L 112.11437668811755 0.5 L 112.11437668811755 -0.5 L 32.5 -0.5 Z M 163.32140793811755 0.5 L 242.9357846262351 0.5 L 242.9357846262351 3.5 L 249.9357846262351 0 L 242.9357846262351 -3.5 L 242.9357846262351 -0.5 L 163.32140793811755 -0.5 Z"/><text text-anchor="middle" pointer-events="none" font-size="8px" fill="#000000" x="137.71789231311755" y="3" transform="rotate(180 137.71789231311755 0)" font-family="sans-serif">SERVED_IN</text></g><g class="relationship" transform="translate(116.240915470818 -131.32252088302786) rotate(517.6610705274309)"><path class="outline" fill="#A5ABB6" stroke="none" d="M 32.5 0.5 L 123.44194614873348 0.5 L 123.44194614873348 -0.5 L 32.5 -0.5 Z M 174.64897739873348 0.5 L 265.59092354746696 0.5 L 265.59092354746696 3.5 L 272.59092354746696 0 L 265.59092354746696 -3.5 L 265.59092354746696 -0.5 L 174.64897739873348 -0.5 Z"/><text text-anchor="middle" pointer-events="none" font-size="8px" fill="#000000" x="149.04546177373348" y="3" transform="rotate(180 149.04546177373348 0)" font-family="sans-serif">SERVED_IN</text></g></g><g class="layer nodes"><g class="node" transform="translate(-173.3237075805664,178.73256790961366)"><circle class="outline" cx="0" cy="0" r="40" fill="#569480" stroke="#447666" stroke-width="2px"/><text text-anchor="middle" pointer-events="none" font-family="sans-serif" dy="2.5" font-size="40" fill="#FFFFFF"/><text text-anchor="middle" pointer-events="none" x="0" y="5" font-size="40" fill="#FFFFFF" dy="2.5" font-family="sans-serif"/><text text-anchor="middle" pointer-events="none" font-family="sans-serif" dy="2.5" font-size="40" fill="#FFFFFF"/><text text-anchor="middle" pointer-events="none" font-family="sans-serif" dy="2.5" font-size="40" fill="#FFFFFF"/><text text-anchor="middle" pointer-events="none" x="0" y="-10" font-size="10px" fill="#FFFFFF" font-family="sans-serif"> Company E</text><text text-anchor="middle" pointer-events="none" x="0" y="0" font-size="10px" fill="#FFFFFF" font-family="sans-serif"> 1st Infantry</text><text text-anchor="middle" pointer-events="none" x="0" y="10" font-size="10px" fill="#FFFFFF" font-family="sans-serif"> North Dakota</text><text text-anchor="middle" pointer-events="none" x="0" y="20" font-size="10px" fill="#FFFFFF" font-family="sans-serif"> National Gua…</text></g><g class="node" transform="translate(-172.8905857663496,-12.511492453003441)"><circle class="outline" cx="0" cy="0" r="40" fill="#569480" stroke="#447666" stroke-width="2px"/><text text-anchor="middle" pointer-events="none" font-family="sans-serif" dy="2.5" font-size="40" fill="#FFFFFF"/><text text-anchor="middle" pointer-events="none" x="0" y="5" font-size="40" fill="#FFFFFF" dy="2.5" font-family="sans-serif"/><text text-anchor="middle" pointer-events="none" x="0" y="0" font-size="10px" fill="#FFFFFF" font-family="sans-serif"> Company B</text><text text-anchor="middle" pointer-events="none" x="0" y="10" font-size="10px" fill="#FFFFFF" font-family="sans-serif"> 116th Engineers</text></g><g class="node" transform="translate(118.90296157968908,81.45252560568962)"><circle class="outline" cx="0" cy="0" r="32.5" fill="#57C7E3" stroke="#23b3d7" stroke-width="2px"/><text text-anchor="middle" pointer-events="none" font-family="sans-serif" dy="2.03125" font-size="32.5" fill="#2A2C34"/><text text-anchor="middle" pointer-events="none" x="0" y="5" font-size="10px" fill="#2A2C34" font-family="sans-serif"> 1</text></g><g class="node" transform="translate(117.88677388475799,308.3817626048208)"><circle class="outline" cx="0" cy="0" r="32.5" fill="#57C7E3" stroke="#23b3d7" stroke-width="2px"/><text text-anchor="middle" pointer-events="none" font-family="sans-serif" dy="2.03125" font-size="32.5" fill="#2A2C34"/><text text-anchor="middle" pointer-events="none" x="0" y="5" font-size="10px" fill="#2A2C34" font-family="sans-serif"> 9961</text></g><g class="node" transform="translate(120.74556558027588,183.1939813852897)"><circle class="outline" cx="0" cy="0" r="32.5" fill="#57C7E3" stroke="#23b3d7" stroke-width="2px"/><text text-anchor="middle" pointer-events="none" font-family="sans-serif" dy="2.03125" font-size="32.5" fill="#2A2C34"/><text text-anchor="middle" pointer-events="none" x="0" y="5" font-size="10px" fill="#2A2C34" font-family="sans-serif"> 11193</text></g><g class="node" transform="translate(116.90127723435526,-21.645787467468963)"><circle class="outline" cx="0" cy="0" r="32.5" fill="#57C7E3" stroke="#23b3d7" stroke-width="2px"/><text text-anchor="middle" pointer-events="none" font-family="sans-serif" dy="2.03125" font-size="32.5" fill="#2A2C34"/><text text-anchor="middle" pointer-events="none" x="0" y="5" font-size="10px" fill="#2A2C34" font-family="sans-serif"> 9853</text></g><g class="node" transform="translate(116.240915470818,-131.32252088302786)"><circle class="outline" cx="0" cy="0" r="32.5" fill="#57C7E3" stroke="#23b3d7" stroke-width="2px"/><text text-anchor="middle" pointer-events="none" font-family="sans-serif" dy="2.03125" font-size="32.5" fill="#2A2C34"/><text text-anchor="middle" pointer-events="none" x="0" y="5" font-size="10px" fill="#2A2C34" font-family="sans-serif"> 25585</text></g></g></svg>