<svg xmlns="http://www.w3.org/2000/svg" width="570.6780395507812" height="285.4818115234375" viewBox="-387.4852294921875 -214.48475646972656 570.6780395507812 285.4818115234375"><g class="layer relationships"><g class="relationship" transform="translate(71.49861861219483 -177.7454146815448) rotate(180.0431920149926)"><path class="outline" fill="#A5ABB6" stroke="none" d="M 31.26317983184346,-8.894581878976458 L 31.52199887694598,-7.92865605268739 A 488.4886117658685 488.4886117658685 0 0 1 130.9255547333786,-23.825278736585688 L 130.87022775229184,-24.823747026099113 A 489.4886117658685 489.4886117658685 0 0 0 31.26317983184346,-8.894581878976458 Z M 179.57100030257791,-25.09585784268944 L 179.52683411593887,-24.09683364480543 A 488.4886117658685 488.4886117658685 0 0 1 279.10181970562826,-9.31198415384691 L 278.3577921364898,-6.4057111149942285 L 286.00712805780756,-8.06029866566608 L 280.0938564644795,-13.18701487231715 L 279.34982889534103,-10.28074183346447 A 489.4886117658685 489.4886117658685 0 0 0 179.57100030257791,-25.09585784268944"/><text text-anchor="middle" pointer-events="none" font-size="8px" fill="#000000" x="155.22002138994756" y="-22.06586916057688" transform="rotate(180 155.22002138994756 -25.06586916057688)" font-family="sans-serif">REVIEWED</text></g><g class="relationship" transform="translate(-82.01170355933536 23.050485361644633) rotate(230.79640587019423)"><path class="outline" fill="#A5ABB6" stroke="none" d="M 31.26317983184346,8.894581878976458 L 31.52199887694598,7.92865605268739 A 375.63978505938104 375.63978505938104 0 0 0 101.90743263788094,19.768359807173454 L 101.83598840386188,20.7658044028405 A 376.63978505938104 376.63978505938104 0 0 1 31.26317983184346,8.894581878976458 Z M 150.537439970504,21.09727002706302 L 150.479579087277,20.098945371356194 A 375.63978505938104 375.63978505938104 0 0 0 221.01964857979175,9.218390849637105 L 220.28270651799704,6.310313065677782 L 227.92798708599597,7.983539002776002 L 222.00223799551804,13.095827894916201 L 221.26529593372334,10.187750110956879 A 376.63978505938104 376.63978505938104 0 0 1 150.537439970504,21.09727002706302"/><text text-anchor="middle" pointer-events="none" font-size="8px" fill="#000000" x="126.18475388482622" y="24.21955975275239" transform="rotate(180 126.18475388482622 21.21955975275239)" font-family="sans-serif">REVIEWED</text></g><g class="relationship" transform="translate(-245.99304382122796 -177.98475355358744) rotate(410.79640587019423)"><path class="outline" fill="#A5ABB6" stroke="none" d="M 31.26317983184346,8.894581878976458 L 31.52199887694598,7.92865605268739 A 375.63978505938104 375.63978505938104 0 0 0 101.90743263788094,19.768359807173454 L 101.83598840386188,20.7658044028405 A 376.63978505938104 376.63978505938104 0 0 1 31.26317983184346,8.894581878976458 Z M 150.537439970504,21.09727002706302 L 150.479579087277,20.098945371356194 A 375.63978505938104 375.63978505938104 0 0 0 221.01964857979175,9.218390849637105 L 220.28270651799704,6.310313065677782 L 227.92798708599597,7.983539002776002 L 222.00223799551804,13.095827894916201 L 221.26529593372334,10.187750110956879 A 376.63978505938104 376.63978505938104 0 0 1 150.537439970504,21.09727002706302"/><text text-anchor="middle" pointer-events="none" font-size="8px" fill="#000000" x="126.18475388482622" y="24.21955975275239" font-family="sans-serif">REVIEWED</text></g><g class="relationship" transform="translate(-245.99304382122796 -177.98475355358744) rotate(476.2950442470089)"><path class="outline" fill="#A5ABB6" stroke="none" d="M 32.5 0.5 L 90.66709146234265 0.5 L 90.66709146234265 -0.5 L 32.5 -0.5 Z M 139.33896646234265 0.5 L 197.5060579246853 0.5 L 197.5060579246853 3.5 L 204.5060579246853 0 L 197.5060579246853 -3.5 L 197.5060579246853 -0.5 L 139.33896646234265 -0.5 Z"/><text text-anchor="middle" pointer-events="none" font-size="8px" fill="#000000" x="115.00302896234265" y="3" transform="rotate(180 115.00302896234265 0)" font-family="sans-serif">REVIEWED</text></g><g class="relationship" transform="translate(-82.01170355933536 23.050485361644633) rotate(537.5631654235884)"><path class="outline" fill="#A5ABB6" stroke="none" d="M 31.26317983184346,8.894581878976458 L 31.52199887694598,7.92865605268739 A 394.6789870140001 394.6789870140001 0 0 0 106.79716652252927,20.46093091114153 L 106.72907252264663,21.4586098210018 A 395.6789870140001 395.6789870140001 0 0 1 31.26317983184346,8.894581878976458 Z M 155.43068362023246,21.778324388764247 L 155.37569397732395,20.779837463875992 A 394.6789870140001 394.6789870140001 0 0 0 230.8089095216837,9.236927525880088 L 230.07056411719196,6.329205726315012 L 237.71665128808417,7.998741881993601 L 231.793370061006,13.11388992530019 L 231.05502465651426,10.206168125735115 A 395.6789870140001 395.6789870140001 0 0 1 155.43068362023246,21.778324388764247"/><text text-anchor="middle" pointer-events="none" font-size="8px" fill="#000000" x="131.07823665570461" y="24.86850135052441" transform="rotate(180 131.07823665570461 21.86850135052441)" font-family="sans-serif">REVIEWED</text></g><g class="relationship" transform="translate(-82.01170355933536 23.050485361644633) rotate(307.39824679367393)"><path class="outline" fill="#A5ABB6" stroke="none" d="M 32.5 0.5 L 98.54089234566584 0.5 L 98.54089234566584 -0.5 L 32.5 -0.5 Z M 147.21276734566584 0.5 L 213.25365969133168 0.5 L 213.25365969133168 3.5 L 220.25365969133168 0 L 213.25365969133168 -3.5 L 213.25365969133168 -0.5 L 147.21276734566584 -0.5 Z"/><text text-anchor="middle" pointer-events="none" font-size="8px" fill="#000000" x="122.87682984566584" y="3" font-family="sans-serif">REVIEWED</text></g><g class="relationship" transform="translate(146.69280446783284 32.921892006844345) rotate(250.35682301850102)"><path class="outline" fill="#A5ABB6" stroke="none" d="M 32.5 0.5 L 84.00645125962016 0.5 L 84.00645125962016 -0.5 L 32.5 -0.5 Z M 132.67832625962018 0.5 L 184.18477751924033 0.5 L 184.18477751924033 3.5 L 191.18477751924033 0 L 184.18477751924033 -3.5 L 184.18477751924033 -0.5 L 132.67832625962018 -0.5 Z"/><text text-anchor="middle" pointer-events="none" font-size="8px" fill="#000000" x="108.34238875962016" y="3" transform="rotate(180 108.34238875962016 0)" font-family="sans-serif">REVIEWED</text></g><g class="relationship" transform="translate(-245.99304382122796 -177.98475355358744) rotate(360.0431920149926)"><path class="outline" fill="#A5ABB6" stroke="none" d="M 31.26317983184346,-8.894581878976458 L 31.52199887694598,-7.92865605268739 A 488.4886117658685 488.4886117658685 0 0 1 130.9255547333786,-23.825278736585688 L 130.87022775229184,-24.823747026099113 A 489.4886117658685 489.4886117658685 0 0 0 31.26317983184346,-8.894581878976458 Z M 179.57100030257791,-25.09585784268944 L 179.52683411593887,-24.09683364480543 A 488.4886117658685 488.4886117658685 0 0 1 279.10181970562826,-9.31198415384691 L 278.3577921364898,-6.4057111149942285 L 286.00712805780756,-8.06029866566608 L 280.0938564644795,-13.18701487231715 L 279.34982889534103,-10.28074183346447 A 489.4886117658685 489.4886117658685 0 0 0 179.57100030257791,-25.09585784268944"/><text text-anchor="middle" pointer-events="none" font-size="8px" fill="#000000" x="155.22002138994756" y="-22.06586916057688" font-family="sans-serif">REVIEWED</text></g><g class="relationship" transform="translate(-350.9852220867835 34.49704330452721) rotate(357.56316542358843)"><path class="outline" fill="#A5ABB6" stroke="none" d="M 31.26317983184346,8.894581878976458 L 31.52199887694598,7.92865605268739 A 394.6789870140001 394.6789870140001 0 0 0 106.79716652252927,20.46093091114153 L 106.72907252264663,21.4586098210018 A 395.6789870140001 395.6789870140001 0 0 1 31.26317983184346,8.894581878976458 Z M 155.43068362023246,21.778324388764247 L 155.37569397732395,20.779837463875992 A 394.6789870140001 394.6789870140001 0 0 0 230.8089095216837,9.236927525880088 L 230.07056411719196,6.329205726315012 L 237.71665128808417,7.998741881993601 L 231.793370061006,13.11388992530019 L 231.05502465651426,10.206168125735115 A 395.6789870140001 395.6789870140001 0 0 1 155.43068362023246,21.778324388764247"/><text text-anchor="middle" pointer-events="none" font-size="8px" fill="#000000" x="131.07823665570461" y="24.86850135052441" font-family="sans-serif">REVIEWED</text></g><g class="relationship" transform="translate(146.69280446783284 32.921892006844345) rotate(182.47148212180434)"><path class="outline" fill="#A5ABB6" stroke="none" d="M 32.5 0.5 L 86.62278503907076 0.5 L 86.62278503907076 -0.5 L 32.5 -0.5 Z M 135.29466003907078 0.5 L 189.41744507814153 0.5 L 189.41744507814153 3.5 L 196.41744507814153 0 L 189.41744507814153 -3.5 L 189.41744507814153 -0.5 L 135.29466003907078 -0.5 Z"/><text text-anchor="middle" pointer-events="none" font-size="8px" fill="#000000" x="110.95872253907076" y="3" transform="rotate(180 110.95872253907076 0)" font-family="sans-serif">REVIEWED</text></g></g><g class="layer nodes"><g class="node" transform="translate(71.49861861219483,-177.7454146815448)"><circle class="outline" cx="0" cy="0" r="32.5" fill="#F16667" stroke="#eb2728" stroke-width="2px"/><text text-anchor="middle" pointer-events="none" font-family="sans-serif" dy="2.03125" font-size="32.5" fill="#FFFFFF"/><text text-anchor="middle" pointer-events="none" font-family="sans-serif" dy="2.03125" font-size="32.5" fill="#FFFFFF"/><text text-anchor="middle" pointer-events="none" font-family="sans-serif" dy="2.03125" font-size="32.5" fill="#FFFFFF"/><text text-anchor="middle" pointer-events="none" x="0" y="-5" font-size="10px" fill="#FFFFFF" font-family="sans-serif"> Centralblatt</text><text text-anchor="middle" pointer-events="none" x="0" y="5" font-size="10px" fill="#FFFFFF" font-family="sans-serif"> für</text><text text-anchor="middle" pointer-events="none" x="0" y="15" font-size="10px" fill="#FFFFFF" font-family="sans-serif"> Nervenhei…</text></g><g class="node" transform="translate(-82.01170355933536,23.050485361644633)"><circle class="outline" cx="0" cy="0" r="32.5" fill="#F16667" stroke="#eb2728" stroke-width="2px"/><text text-anchor="middle" pointer-events="none" font-family="sans-serif" dy="2.03125" font-size="32.5" fill="#FFFFFF"/><text text-anchor="middle" pointer-events="none" font-family="sans-serif" dy="2.03125" font-size="32.5" fill="#FFFFFF"/><text text-anchor="middle" pointer-events="none" font-family="sans-serif" dy="2.03125" font-size="32.5" fill="#FFFFFF"/><text text-anchor="middle" pointer-events="none" x="0" y="-5" font-size="10px" fill="#FFFFFF" font-family="sans-serif"> The journal</text><text text-anchor="middle" pointer-events="none" x="0" y="5" font-size="10px" fill="#FFFFFF" font-family="sans-serif"> of mental</text><text text-anchor="middle" pointer-events="none" x="0" y="15" font-size="10px" fill="#FFFFFF" font-family="sans-serif"> science</text></g><g class="node" transform="translate(-245.99304382122796,-177.98475355358744)"><circle class="outline" cx="0" cy="0" r="32.5" fill="#F16667" stroke="#eb2728" stroke-width="2px"/><text text-anchor="middle" pointer-events="none" font-family="sans-serif" dy="2.03125" font-size="32.5" fill="#FFFFFF"/><text text-anchor="middle" pointer-events="none" font-family="sans-serif" dy="2.03125" font-size="32.5" fill="#FFFFFF"/><text text-anchor="middle" pointer-events="none" font-family="sans-serif" dy="2.03125" font-size="32.5" fill="#FFFFFF"/><text text-anchor="middle" pointer-events="none" x="0" y="-5" font-size="10px" fill="#FFFFFF" font-family="sans-serif"> Rivista</text><text text-anchor="middle" pointer-events="none" x="0" y="5" font-size="10px" fill="#FFFFFF" font-family="sans-serif"> Sperimentale</text><text text-anchor="middle" pointer-events="none" x="0" y="15" font-size="10px" fill="#FFFFFF" font-family="sans-serif"> di Freniatria</text></g><g class="node" transform="translate(-350.9852220867835,34.49704330452721)"><circle class="outline" cx="0" cy="0" r="32.5" fill="#F16667" stroke="#eb2728" stroke-width="2px"/><text text-anchor="middle" pointer-events="none" font-family="sans-serif" dy="2.03125" font-size="32.5" fill="#FFFFFF"/><text text-anchor="middle" pointer-events="none" x="0" y="5" font-size="10px" fill="#FFFFFF" font-family="sans-serif"> Neurologisc…</text></g><g class="node" transform="translate(146.69280446783284,32.921892006844345)"><circle class="outline" cx="0" cy="0" r="32.5" fill="#F16667" stroke="#eb2728" stroke-width="2px"/><text text-anchor="middle" pointer-events="none" font-family="sans-serif" dy="2.03125" font-size="32.5" fill="#FFFFFF"/><text text-anchor="middle" pointer-events="none" font-family="sans-serif" dy="2.03125" font-size="32.5" fill="#FFFFFF"/><text text-anchor="middle" pointer-events="none" x="0" y="0" font-size="10px" fill="#FFFFFF" font-family="sans-serif"> Журнал</text><text text-anchor="middle" pointer-events="none" x="0" y="10" font-size="10px" fill="#FFFFFF" font-family="sans-serif"> невропато…</text></g></g></svg>