<svg xmlns="http://www.w3.org/2000/svg" width="782.3377685546875" height="366.01123046875" viewBox="-490.2617492675781 -131.3209991455078 782.3377685546875 366.01123046875"><g class="layer relationships"><g class="relationship" transform="translate(-117.98143653938004 193.49729652429448) rotate(322.23985187363235)"><path class="outline" fill="#A5ABB6" stroke="none" d="M 32.5 0.5 L 62.7521746068432 0.5 L 62.7521746068432 -0.5 L 32.5 -0.5 Z M 126.5490496068432 0.5 L 156.8012242136864 0.5 L 156.8012242136864 3.5 L 163.8012242136864 0 L 156.8012242136864 -3.5 L 156.8012242136864 -0.5 L 126.5490496068432 -0.5 Z"/><text text-anchor="middle" pointer-events="none" font-size="8px" fill="#000000" x="94.6506121068432" y="3" font-family="sans-serif">PUBLISHED_IN</text></g><g class="relationship" transform="translate(37.21060643445813 73.29080574530889) rotate(356.1032035493905)"><path class="outline" fill="#A5ABB6" stroke="none" d="M 32.5 0.5 L 35.18471381086169 0.5 L 35.18471381086169 -0.5 L 32.5 -0.5 Z M 59.85658881086169 0.5 L 62.541302621723375 0.5 L 62.541302621723375 3.5 L 69.54130262172337 0 L 62.541302621723375 -3.5 L 62.541302621723375 -0.5 L 59.85658881086169 -0.5 Z"/><text text-anchor="middle" pointer-events="none" font-size="8px" fill="#000000" x="47.52065131086169" y="3" font-family="sans-serif">LO…</text></g><g class="relationship" transform="translate(255.57600634519935 149.82355845780364) rotate(217.59217124344184)"><path class="outline" fill="#A5ABB6" stroke="none" d="M 32.5 0.5 L 33.757280149766245 0.5 L 33.757280149766245 -0.5 L 32.5 -0.5 Z M 89.40181139976625 0.5 L 90.65909154953249 0.5 L 90.65909154953249 3.5 L 97.65909154953249 0 L 90.65909154953249 -3.5 L 90.65909154953249 -0.5 L 89.40181139976625 -0.5 Z"/><text text-anchor="middle" pointer-events="none" font-size="8px" fill="#000000" x="61.579545774766245" y="3" transform="rotate(180 61.579545774766245 0)" font-family="sans-serif">LOCATED_IN</text></g><g class="relationship" transform="translate(143.87722066337614 198.19022165810424) rotate(271.13475425032897)"><path class="outline" fill="#A5ABB6" stroke="none" d="M 32.5 0.5 L 33.33721814507956 0.5 L 33.33721814507956 -0.5 L 32.5 -0.5 Z M 84.53253064507956 0.5 L 85.36974879015912 0.5 L 85.36974879015912 3.5 L 92.36974879015912 0 L 85.36974879015912 -3.5 L 85.36974879015912 -0.5 L 84.53253064507956 -0.5 Z"/><text text-anchor="middle" pointer-events="none" font-size="8px" fill="#000000" x="58.93487439507956" y="3" font-family="sans-serif">LOCATED…</text></g><g class="relationship" transform="translate(243.03244284879017 -14.75262743648267) rotate(500.14044415630326)"><path class="outline" fill="#A5ABB6" stroke="none" d="M 32.5 0.5 L 32.91982774620726 0.5 L 32.91982774620726 -0.5 L 32.5 -0.5 Z M 78.33779649620726 0.5 L 78.75762424241452 0.5 L 78.75762424241452 3.5 L 85.75762424241452 0 L 78.75762424241452 -3.5 L 78.75762424241452 -0.5 L 78.33779649620726 -0.5 Z"/><text text-anchor="middle" pointer-events="none" font-size="8px" fill="#000000" x="55.62881212120726" y="3" transform="rotate(180 55.62881212120726 0)" font-family="sans-serif">LOCATE…</text></g><g class="relationship" transform="translate(-453.7617641091935 -15.337565093499379) rotate(400.627735722734)"><path class="outline" fill="#A5ABB6" stroke="none" d="M 32.5 0.5 L 32.806194294773924 0.5 L 32.806194294773924 -0.5 L 32.5 -0.5 Z M 81.04056929477392 0.5 L 81.34676358954785 0.5 L 81.34676358954785 3.5 L 88.34676358954785 0 L 81.34676358954785 -3.5 L 81.34676358954785 -0.5 L 81.04056929477392 -0.5 Z"/><text text-anchor="middle" pointer-events="none" font-size="8px" fill="#000000" x="56.923381794773924" y="3" font-family="sans-serif">PUBLISH…</text></g><g class="relationship" transform="translate(-362.04436462273827 63.350800638100665) rotate(293.27421345947084)"><path class="outline" fill="#A5ABB6" stroke="none" d="M 32.5 0.5 L 45.9551794560072 0.5 L 45.9551794560072 -0.5 L 32.5 -0.5 Z M 101.5997107060072 0.5 L 115.0548901620144 0.5 L 115.0548901620144 3.5 L 122.0548901620144 0 L 115.0548901620144 -3.5 L 115.0548901620144 -0.5 L 101.5997107060072 -0.5 Z"/><text text-anchor="middle" pointer-events="none" font-size="8px" fill="#000000" x="73.7774450810072" y="3" font-family="sans-serif">LOCATED_IN</text></g><g class="relationship" transform="translate(-106.16827448645518 -94.82099671706158) rotate(537.223374986367)"><path class="outline" fill="#A5ABB6" stroke="none" d="M 32.5 0.5 L 60.96198017408521 0.5 L 60.96198017408521 -0.5 L 32.5 -0.5 Z M 116.60651142408521 0.5 L 145.06849159817043 0.5 L 145.06849159817043 3.5 L 152.06849159817043 0 L 145.06849159817043 -3.5 L 145.06849159817043 -0.5 L 116.60651142408521 -0.5 Z"/><text text-anchor="middle" pointer-events="none" font-size="8px" fill="#000000" x="88.78424579908521" y="3" transform="rotate(180 88.78424579908521 0)" font-family="sans-serif">LOCATED_IN</text></g></g><g class="layer nodes"><g class="node" transform="translate(255.57600634519935,149.82355845780364)"><circle class="outline" cx="0" cy="0" r="32.5" fill="#8DCC93" stroke="#5db665" stroke-width="2px"/><text text-anchor="middle" pointer-events="none" font-family="sans-serif" dy="2.03125" font-size="32.5" fill="#2A2C34"/><text text-anchor="middle" pointer-events="none" x="0" y="5" font-size="10px" fill="#2A2C34" font-family="sans-serif"> Chiba</text></g><g class="node" transform="translate(-106.16827448645518,-94.82099671706158)"><circle class="outline" cx="0" cy="0" r="32.5" fill="#8DCC93" stroke="#5db665" stroke-width="2px"/><text text-anchor="middle" pointer-events="none" font-family="sans-serif" dy="2.03125" font-size="32.5" fill="#2A2C34"/><text text-anchor="middle" pointer-events="none" x="0" y="5" font-size="10px" fill="#2A2C34" font-family="sans-serif"> Edinburgh</text></g><g class="node" transform="translate(143.87722066337614,198.19022165810424)"><circle class="outline" cx="0" cy="0" r="32.5" fill="#8DCC93" stroke="#5db665" stroke-width="2px"/><text text-anchor="middle" pointer-events="none" font-family="sans-serif" dy="2.03125" font-size="32.5" fill="#2A2C34"/><text text-anchor="middle" pointer-events="none" x="0" y="5" font-size="10px" fill="#2A2C34" font-family="sans-serif"> Fukui</text></g><g class="node" transform="translate(243.03244284879017,-14.75262743648267)"><circle class="outline" cx="0" cy="0" r="32.5" fill="#8DCC93" stroke="#5db665" stroke-width="2px"/><text text-anchor="middle" pointer-events="none" font-family="sans-serif" dy="2.03125" font-size="32.5" fill="#2A2C34"/><text text-anchor="middle" pointer-events="none" x="0" y="5" font-size="10px" fill="#2A2C34" font-family="sans-serif"> Fukuoka</text></g><g class="node" transform="translate(-362.04436462273827,63.350800638100665)"><circle class="outline" cx="0" cy="0" r="32.5" fill="#8DCC93" stroke="#5db665" stroke-width="2px"/><text text-anchor="middle" pointer-events="none" font-family="sans-serif" dy="2.03125" font-size="32.5" fill="#2A2C34"/><text text-anchor="middle" pointer-events="none" x="0" y="5" font-size="10px" fill="#2A2C34" font-family="sans-serif"> Glasgow</text></g><g class="node" transform="translate(37.21060643445813,73.29080574530889)"><circle class="outline" cx="0" cy="0" r="32.5" fill="#8DCC93" stroke="#5db665" stroke-width="2px"/><text text-anchor="middle" pointer-events="none" font-family="sans-serif" dy="2.03125" font-size="32.5" fill="#2A2C34"/><text text-anchor="middle" pointer-events="none" x="0" y="5" font-size="10px" fill="#2A2C34" font-family="sans-serif"> Hiroshima</text></g><g class="node" transform="translate(-117.98143653938004,193.49729652429448)"><circle class="outline" cx="0" cy="0" r="32.5" fill="#F16667" stroke="#eb2728" stroke-width="2px"/><text text-anchor="middle" pointer-events="none" font-family="sans-serif" dy="2.03125" font-size="32.5" fill="#FFFFFF"/><text text-anchor="middle" pointer-events="none" x="0" y="5" font-size="10px" fill="#FFFFFF" font-family="sans-serif"> 廣島衛生醫…</text></g><g class="node" transform="translate(146.49865834754314,65.84643276252416)"><circle class="outline" cx="0" cy="0" r="40" fill="#57C7E3" stroke="#23b3d7" stroke-width="2px"/><text text-anchor="middle" pointer-events="none" font-family="sans-serif" dy="2.5" font-size="40" fill="#2A2C34"/><text text-anchor="middle" pointer-events="none" font-family="sans-serif" dy="2.5" font-size="40" fill="#2A2C34"/><text text-anchor="middle" pointer-events="none" x="0" y="0" font-size="10px" fill="#2A2C34" font-family="sans-serif"> Japanese</text><text text-anchor="middle" pointer-events="none" x="0" y="10" font-size="10px" fill="#2A2C34" font-family="sans-serif"> Empire</text></g><g class="node" transform="translate(-453.7617641091935,-15.337565093499379)"><circle class="outline" cx="0" cy="0" r="32.5" fill="#F16667" stroke="#eb2728" stroke-width="2px"/><text text-anchor="middle" pointer-events="none" font-family="sans-serif" dy="2.03125" font-size="32.5" fill="#FFFFFF"/><text text-anchor="middle" pointer-events="none" font-family="sans-serif" dy="2.03125" font-size="32.5" fill="#FFFFFF"/><text text-anchor="middle" pointer-events="none" font-family="sans-serif" dy="2.03125" font-size="32.5" fill="#FFFFFF"/><text text-anchor="middle" pointer-events="none" x="0" y="-5" font-size="10px" fill="#FFFFFF" font-family="sans-serif"> Glasgow</text><text text-anchor="middle" pointer-events="none" x="0" y="5" font-size="10px" fill="#FFFFFF" font-family="sans-serif"> medical</text><text text-anchor="middle" pointer-events="none" x="0" y="15" font-size="10px" fill="#FFFFFF" font-family="sans-serif"> journal</text></g><g class="node" transform="translate(-298.01127450329665,-85.51676062081839)"><circle class="outline" cx="0" cy="0" r="40" fill="#57C7E3" stroke="#23b3d7" stroke-width="2px"/><text text-anchor="middle" pointer-events="none" font-family="sans-serif" dy="2.5" font-size="40" fill="#2A2C34"/><text text-anchor="middle" pointer-events="none" x="0" y="5" font-size="10px" fill="#2A2C34" font-family="sans-serif"> British Empire</text></g></g></svg>