<svg xmlns="http://www.w3.org/2000/svg" width="353.9516906738281" height="354.86114501953125" viewBox="-77.2928237915039 -77.24200439453125 353.9516906738281 354.86114501953125"><g class="layer relationships"><g class="relationship" transform="translate(99.55596831929287 99.81014279619424) rotate(409.71487254451563)"><path class="outline" fill="#A5ABB6" stroke="none" d="M 32.5 0.5 L 46.144029738994604 0.5 L 46.144029738994604 -0.5 L 32.5 -0.5 Z M 94.8159047389946 0.5 L 108.45993447798921 0.5 L 108.45993447798921 3.5 L 115.45993447798921 0 L 108.45993447798921 -3.5 L 108.45993447798921 -0.5 L 94.8159047389946 -0.5 Z"/><text text-anchor="middle" pointer-events="none" font-size="8px" fill="#000000" x="70.4799672389946" y="3" font-family="sans-serif">REVIEWED</text></g><g class="relationship" transform="translate(99.55596831929287 99.81014279619424) rotate(319.78275930553036)"><path class="outline" fill="#A5ABB6" stroke="none" d="M 32.5 0.5 L 46.25042777581834 0.5 L 46.25042777581834 -0.5 L 32.5 -0.5 Z M 94.92230277581834 0.5 L 108.67273055163668 0.5 L 108.67273055163668 3.5 L 115.67273055163668 0 L 108.67273055163668 -3.5 L 108.67273055163668 -0.5 L 94.92230277581834 -0.5 Z"/><text text-anchor="middle" pointer-events="none" font-size="8px" fill="#000000" x="70.58636527581834" y="3" font-family="sans-serif">REVIEWED</text></g><g class="relationship" transform="translate(99.55596831929287 99.81014279619424) rotate(529.3750218484389)"><path class="outline" fill="#A5ABB6" stroke="none" d="M 32.5 0.5 L 43.56258236144075 0.5 L 43.56258236144075 -0.5 L 32.5 -0.5 Z M 92.23445736144075 0.5 L 103.2970397228815 0.5 L 103.2970397228815 3.5 L 110.2970397228815 0 L 103.2970397228815 -3.5 L 103.2970397228815 -0.5 L 92.23445736144075 -0.5 Z"/><text text-anchor="middle" pointer-events="none" font-size="8px" fill="#000000" x="67.89851986144075" y="3" transform="rotate(180 67.89851986144075 0)" font-family="sans-serif">REVIEWED</text></g><g class="relationship" transform="translate(99.55596831929287 99.81014279619424) rotate(229.69536239022517)"><path class="outline" fill="#A5ABB6" stroke="none" d="M 32.5 0.5 L 45.72250784574216 0.5 L 45.72250784574216 -0.5 L 32.5 -0.5 Z M 94.39438284574216 0.5 L 107.61689069148431 0.5 L 107.61689069148431 3.5 L 114.61689069148431 0 L 107.61689069148431 -3.5 L 107.61689069148431 -0.5 L 94.39438284574216 -0.5 Z"/><text text-anchor="middle" pointer-events="none" font-size="8px" fill="#000000" x="70.05844534574216" y="3" transform="rotate(180 70.05844534574216 0)" font-family="sans-serif">REVIEWED</text></g><g class="relationship" transform="translate(99.55596831929287 99.81014279619424) rotate(199.79256013346355)"><path class="outline" fill="#A5ABB6" stroke="none" d="M 32.5 0.5 L 43.656252644259126 0.5 L 43.656252644259126 -0.5 L 32.5 -0.5 Z M 92.32812764425913 0.5 L 103.48438028851825 0.5 L 103.48438028851825 3.5 L 110.48438028851825 0 L 103.48438028851825 -3.5 L 103.48438028851825 -0.5 L 92.32812764425913 -0.5 Z"/><text text-anchor="middle" pointer-events="none" font-size="8px" fill="#000000" x="67.99219014425913" y="3" transform="rotate(180 67.99219014425913 0)" font-family="sans-serif">REVIEWED</text></g><g class="relationship" transform="translate(99.55596831929287 99.81014279619424) rotate(439.4432839671617)"><path class="outline" fill="#A5ABB6" stroke="none" d="M 32.5 0.5 L 44.035057531923286 0.5 L 44.035057531923286 -0.5 L 32.5 -0.5 Z M 92.70693253192329 0.5 L 104.24199006384657 0.5 L 104.24199006384657 3.5 L 111.24199006384657 0 L 104.24199006384657 -3.5 L 104.24199006384657 -0.5 L 92.70693253192329 -0.5 Z"/><text text-anchor="middle" pointer-events="none" font-size="8px" fill="#000000" x="68.37099503192329" y="3" font-family="sans-serif">REVIEWED</text></g><g class="relationship" transform="translate(99.55596831929287 99.81014279619424) rotate(349.56376260323157)"><path class="outline" fill="#A5ABB6" stroke="none" d="M 32.5 0.5 L 43.648079594478915 0.5 L 43.648079594478915 -0.5 L 32.5 -0.5 Z M 92.31995459447892 0.5 L 103.46803418895783 0.5 L 103.46803418895783 3.5 L 110.46803418895783 0 L 103.46803418895783 -3.5 L 103.46803418895783 -0.5 L 92.31995459447892 -0.5 Z"/><text text-anchor="middle" pointer-events="none" font-size="8px" fill="#000000" x="67.98401709447892" y="3" font-family="sans-serif">REVIEWED</text></g><g class="relationship" transform="translate(99.55596831929287 99.81014279619424) rotate(290.011884476295)"><path class="outline" fill="#A5ABB6" stroke="none" d="M 32.5 0.5 L 43.6651416497013 0.5 L 43.6651416497013 -0.5 L 32.5 -0.5 Z M 92.3370166497013 0.5 L 103.5021582994026 0.5 L 103.5021582994026 3.5 L 110.5021582994026 0 L 103.5021582994026 -3.5 L 103.5021582994026 -0.5 L 92.3370166497013 -0.5 Z"/><text text-anchor="middle" pointer-events="none" font-size="8px" fill="#000000" x="68.0010791497013" y="3" font-family="sans-serif">REVIEWED</text></g><g class="relationship" transform="translate(99.55596831929287 99.81014279619424) rotate(379.9197337221113)"><path class="outline" fill="#A5ABB6" stroke="none" d="M 32.5 0.5 L 43.723412099098454 0.5 L 43.723412099098454 -0.5 L 32.5 -0.5 Z M 92.39528709909845 0.5 L 103.61869919819691 0.5 L 103.61869919819691 3.5 L 110.61869919819691 0 L 103.61869919819691 -3.5 L 103.61869919819691 -0.5 L 92.39528709909845 -0.5 Z"/><text text-anchor="middle" pointer-events="none" font-size="8px" fill="#000000" x="68.05934959909845" y="3" font-family="sans-serif">REVIEWED</text></g><g class="relationship" transform="translate(99.55596831929287 99.81014279619424) rotate(469.75309978856563)"><path class="outline" fill="#A5ABB6" stroke="none" d="M 32.5 0.5 L 43.65215872360791 0.5 L 43.65215872360791 -0.5 L 32.5 -0.5 Z M 92.32403372360791 0.5 L 103.47619244721582 0.5 L 103.47619244721582 3.5 L 110.47619244721582 0 L 103.47619244721582 -3.5 L 103.47619244721582 -0.5 L 92.32403372360791 -0.5 Z"/><text text-anchor="middle" pointer-events="none" font-size="8px" fill="#000000" x="67.98809622360791" y="3" transform="rotate(180 67.98809622360791 0)" font-family="sans-serif">REVIEWED</text></g><g class="relationship" transform="translate(99.55596831929287 99.81014279619424) rotate(499.54035483827363)"><path class="outline" fill="#A5ABB6" stroke="none" d="M 32.5 0.5 L 46.11912971791642 0.5 L 46.11912971791642 -0.5 L 32.5 -0.5 Z M 94.79100471791642 0.5 L 108.41013443583284 0.5 L 108.41013443583284 3.5 L 115.41013443583284 0 L 108.41013443583284 -3.5 L 108.41013443583284 -0.5 L 94.79100471791642 -0.5 Z"/><text text-anchor="middle" pointer-events="none" font-size="8px" fill="#000000" x="70.45506721791642" y="3" transform="rotate(180 70.45506721791642 0)" font-family="sans-serif">REVIEWED</text></g><g class="relationship" transform="translate(99.55596831929287 99.81014279619424) rotate(259.6165037314066)"><path class="outline" fill="#A5ABB6" stroke="none" d="M 32.5 0.5 L 43.61018072255588 0.5 L 43.61018072255588 -0.5 L 32.5 -0.5 Z M 92.28205572255588 0.5 L 103.39223644511176 0.5 L 103.39223644511176 3.5 L 110.39223644511176 0 L 103.39223644511176 -3.5 L 103.39223644511176 -0.5 L 92.28205572255588 -0.5 Z"/><text text-anchor="middle" pointer-events="none" font-size="8px" fill="#000000" x="67.94611822255588" y="3" transform="rotate(180 67.94611822255588 0)" font-family="sans-serif">REVIEWED</text></g><g class="relationship" transform="translate(99.55596831929287 99.81014279619424) rotate(454.58379099095123)"><path class="outline" fill="#A5ABB6" stroke="none" d="M 8.894581878976458 31.263179831843463 L 19.247343683077286 69.90021288340618 A 19.926316451256394 19.926316451256394 0 1 1 -19.247343683077286 69.90021288340618 L -10.706315194694104 38.024660615866935 L -6.842611889537831 39.05993679627702 L -8.411618965831924 31.392589354394723 L -13.60409267356131 37.248203480559376 L -9.740389368405035 38.283479660969455 L -18.28141785678822 70.15903192850871 A 18.926316451256394 18.926316451256394 0 1 0 18.28141785678822 70.15903192850871 L 7.92865605268739 31.521998876945982 Z"/><text text-anchor="middle" pointer-events="none" font-size="8px" fill="#000000" x="0" y="103.98383953098741" transform="rotate(180 0 100.98383953098741)" font-family="sans-serif">REVIEWED</text></g></g><g class="layer nodes"><g class="node" transform="translate(51.234642473764765,234.37329182011385)"><circle class="outline" cx="0" cy="0" r="32.5" fill="#F16667" stroke="#eb2728" stroke-width="2px"/><text text-anchor="middle" pointer-events="none" font-family="sans-serif" dy="2.03125" font-size="32.5" fill="#FFFFFF"/><text text-anchor="middle" pointer-events="none" x="0" y="5" font-size="10px" fill="#FFFFFF" font-family="sans-serif"> Psychiatrisc…</text></g><g class="node" transform="translate(-12.983409779172225,195.7908504724604)"><circle class="outline" cx="0" cy="0" r="32.5" fill="#F16667" stroke="#eb2728" stroke-width="2px"/><text text-anchor="middle" pointer-events="none" font-family="sans-serif" dy="2.03125" font-size="32.5" fill="#FFFFFF"/><text text-anchor="middle" pointer-events="none" x="0" y="5" font-size="32.5" fill="#FFFFFF" dy="2.03125" font-family="sans-serif"/><text text-anchor="middle" pointer-events="none" font-family="sans-serif" dy="2.03125" font-size="32.5" fill="#FFFFFF"/><text text-anchor="middle" pointer-events="none" font-family="sans-serif" dy="2.03125" font-size="32.5" fill="#FFFFFF"/><text text-anchor="middle" pointer-events="none" x="0" y="-10" font-size="10px" fill="#FFFFFF" font-family="sans-serif"> The</text><text text-anchor="middle" pointer-events="none" x="0" y="0" font-size="10px" fill="#FFFFFF" font-family="sans-serif"> American</text><text text-anchor="middle" pointer-events="none" x="0" y="10" font-size="10px" fill="#FFFFFF" font-family="sans-serif"> Journal of</text><text text-anchor="middle" pointer-events="none" x="0" y="20" font-size="10px" fill="#FFFFFF" font-family="sans-serif"> Insanity</text></g><g class="node" transform="translate(99.55596831929287,99.81014279619424)"><circle class="outline" cx="0" cy="0" r="32.5" fill="#F16667" stroke="#eb2728" stroke-width="2px"/><text text-anchor="middle" pointer-events="none" font-family="sans-serif" dy="2.03125" font-size="32.5" fill="#FFFFFF"/><text text-anchor="middle" pointer-events="none" x="0" y="5" font-size="32.5" fill="#FFFFFF" dy="2.03125" font-family="sans-serif"/><text text-anchor="middle" pointer-events="none" font-family="sans-serif" dy="2.03125" font-size="32.5" fill="#FFFFFF"/><text text-anchor="middle" pointer-events="none" x="0" y="-5" font-size="10px" fill="#FFFFFF" font-family="sans-serif"> Allgemeine</text><text text-anchor="middle" pointer-events="none" x="0" y="5" font-size="10px" fill="#FFFFFF" font-family="sans-serif"> Zeitschrift für</text><text text-anchor="middle" pointer-events="none" x="0" y="15" font-size="10px" fill="#FFFFFF" font-family="sans-serif"> Psychiatrie</text></g><g class="node" transform="translate(195.22564693391016,212.6793361330242)"><circle class="outline" cx="0" cy="0" r="32.5" fill="#F16667" stroke="#eb2728" stroke-width="2px"/><text text-anchor="middle" pointer-events="none" font-family="sans-serif" dy="2.03125" font-size="32.5" fill="#FFFFFF"/><text text-anchor="middle" pointer-events="none" x="0" y="5" font-size="32.5" fill="#FFFFFF" dy="2.03125" font-family="sans-serif"/><text text-anchor="middle" pointer-events="none" font-family="sans-serif" dy="2.03125" font-size="32.5" fill="#FFFFFF"/><text text-anchor="middle" pointer-events="none" font-family="sans-serif" dy="2.03125" font-size="32.5" fill="#FFFFFF"/><text text-anchor="middle" pointer-events="none" font-family="sans-serif" dy="2.03125" font-size="32.5" fill="#FFFFFF"/><text text-anchor="middle" pointer-events="none" x="0" y="-15" font-size="10px" fill="#FFFFFF" font-family="sans-serif"> Archiv</text><text text-anchor="middle" pointer-events="none" x="0" y="-5" font-size="10px" fill="#FFFFFF" font-family="sans-serif"> für</text><text text-anchor="middle" pointer-events="none" x="0" y="5" font-size="10px" fill="#FFFFFF" font-family="sans-serif"> Psychiatrie</text><text text-anchor="middle" pointer-events="none" x="0" y="15" font-size="10px" fill="#FFFFFF" font-family="sans-serif"> und</text><text text-anchor="middle" pointer-events="none" x="0" y="25" font-size="10px" fill="#FFFFFF" font-family="sans-serif"> Nerve…</text></g><g class="node" transform="translate(125.8907574777168,241.11916086473906)"><circle class="outline" cx="0" cy="0" r="32.5" fill="#F16667" stroke="#eb2728" stroke-width="2px"/><text text-anchor="middle" pointer-events="none" font-family="sans-serif" dy="2.03125" font-size="32.5" fill="#FFFFFF"/><text text-anchor="middle" pointer-events="none" x="0" y="5" font-size="32.5" fill="#FFFFFF" dy="2.03125" font-family="sans-serif"/><text text-anchor="middle" pointer-events="none" font-family="sans-serif" dy="2.03125" font-size="32.5" fill="#FFFFFF"/><text text-anchor="middle" pointer-events="none" x="0" y="-5" font-size="10px" fill="#FFFFFF" font-family="sans-serif"> Berliner</text><text text-anchor="middle" pointer-events="none" x="0" y="5" font-size="10px" fill="#FFFFFF" font-family="sans-serif"> klinische</text><text text-anchor="middle" pointer-events="none" x="0" y="15" font-size="10px" fill="#FFFFFF" font-family="sans-serif"> Wochensc…</text></g><g class="node" transform="translate(240.15889699057144,73.91274429915667)"><circle class="outline" cx="0" cy="0" r="32.5" fill="#F16667" stroke="#eb2728" stroke-width="2px"/><text text-anchor="middle" pointer-events="none" font-family="sans-serif" dy="2.03125" font-size="32.5" fill="#FFFFFF"/><text text-anchor="middle" pointer-events="none" x="0" y="5" font-size="32.5" fill="#FFFFFF" dy="2.03125" font-family="sans-serif"/><text text-anchor="middle" pointer-events="none" x="0" y="0" font-size="10px" fill="#FFFFFF" font-family="sans-serif"> Charité</text><text text-anchor="middle" pointer-events="none" x="0" y="10" font-size="10px" fill="#FFFFFF" font-family="sans-serif"> Annalen</text></g><g class="node" transform="translate(234.1119957142726,148.57116772251663)"><circle class="outline" cx="0" cy="0" r="32.5" fill="#F16667" stroke="#eb2728" stroke-width="2px"/><text text-anchor="middle" pointer-events="none" font-family="sans-serif" dy="2.03125" font-size="32.5" fill="#FFFFFF"/><text text-anchor="middle" pointer-events="none" x="0" y="5" font-size="10px" fill="#FFFFFF" font-family="sans-serif"> Monatsschrift</text></g><g class="node" transform="translate(148.4934590798135,-34.55778223188439)"><circle class="outline" cx="0" cy="0" r="32.5" fill="#F16667" stroke="#eb2728" stroke-width="2px"/><text text-anchor="middle" pointer-events="none" font-family="sans-serif" dy="2.03125" font-size="32.5" fill="#FFFFFF"/><text text-anchor="middle" pointer-events="none" x="0" y="5" font-size="32.5" fill="#FFFFFF" dy="2.03125" font-family="sans-serif"/><text text-anchor="middle" pointer-events="none" x="0" y="0" font-size="10px" fill="#FFFFFF" font-family="sans-serif"> Virchows</text><text text-anchor="middle" pointer-events="none" x="0" y="10" font-size="10px" fill="#FFFFFF" font-family="sans-serif"> Archiv</text></g><g class="node" transform="translate(73.80166813171816,-40.74200858589603)"><circle class="outline" cx="0" cy="0" r="32.5" fill="#F16667" stroke="#eb2728" stroke-width="2px"/><text text-anchor="middle" pointer-events="none" font-family="sans-serif" dy="2.03125" font-size="32.5" fill="#FFFFFF"/><text text-anchor="middle" pointer-events="none" x="0" y="5" font-size="10px" fill="#FFFFFF" font-family="sans-serif"> Vierteljahrs…</text></g><g class="node" transform="translate(212.7009278412799,4.136864322548127)"><circle class="outline" cx="0" cy="0" r="32.5" fill="#F16667" stroke="#eb2728" stroke-width="2px"/><text text-anchor="middle" pointer-events="none" font-family="sans-serif" dy="2.03125" font-size="32.5" fill="#FFFFFF"/><text text-anchor="middle" pointer-events="none" x="0" y="5" font-size="32.5" fill="#FFFFFF" dy="2.03125" font-family="sans-serif"/><text text-anchor="middle" pointer-events="none" font-family="sans-serif" dy="2.03125" font-size="32.5" fill="#FFFFFF"/><text text-anchor="middle" pointer-events="none" x="0" y="-5" font-size="10px" fill="#FFFFFF" font-family="sans-serif"> Centralblatt</text><text text-anchor="middle" pointer-events="none" x="0" y="5" font-size="10px" fill="#FFFFFF" font-family="sans-serif"> für</text><text text-anchor="middle" pointer-events="none" x="0" y="15" font-size="10px" fill="#FFFFFF" font-family="sans-serif"> Nervenhei…</text></g><g class="node" transform="translate(-34.981573413884895,51.39338050372924)"><circle class="outline" cx="0" cy="0" r="32.5" fill="#F16667" stroke="#eb2728" stroke-width="2px"/><text text-anchor="middle" pointer-events="none" font-family="sans-serif" dy="2.03125" font-size="32.5" fill="#FFFFFF"/><text text-anchor="middle" pointer-events="none" x="0" y="5" font-size="32.5" fill="#FFFFFF" dy="2.03125" font-family="sans-serif"/><text text-anchor="middle" pointer-events="none" x="0" y="0" font-size="10px" fill="#FFFFFF" font-family="sans-serif"> Deutsche</text><text text-anchor="middle" pointer-events="none" x="0" y="10" font-size="10px" fill="#FFFFFF" font-family="sans-serif"> Aerzte-Zeit…</text></g><g class="node" transform="translate(4.393185582588138,-12.383548240944172)"><circle class="outline" cx="0" cy="0" r="32.5" fill="#F16667" stroke="#eb2728" stroke-width="2px"/><text text-anchor="middle" pointer-events="none" font-family="sans-serif" dy="2.03125" font-size="32.5" fill="#FFFFFF"/><text text-anchor="middle" pointer-events="none" x="0" y="5" font-size="10px" fill="#FFFFFF" font-family="sans-serif"> Monatsschrift</text></g><g class="node" transform="translate(-40.79282500730377,126.13903881153179)"><circle class="outline" cx="0" cy="0" r="32.5" fill="#F16667" stroke="#eb2728" stroke-width="2px"/><text text-anchor="middle" pointer-events="none" font-family="sans-serif" dy="2.03125" font-size="32.5" fill="#FFFFFF"/><text text-anchor="middle" pointer-events="none" x="0" y="5" font-size="10px" fill="#FFFFFF" font-family="sans-serif"> Der Pfarrbote</text></g></g></svg>