<svg height='300px' width='300px'  fill="#000000" xmlns="http://www.w3.org/2000/svg" xmlns:xlink="http://www.w3.org/1999/xlink" version="1.1" x="0px" y="0px" viewBox="0 0 100 100" enable-background="new 0 0 100 100" xml:space="preserve">
  <path d="M74.304,43.008c0,0-1.845-17.065-14.039-17.346c0,0-1.477-0.328-5.207,1.23c0,0,6.21-7.279,18.035-7.506  c0,0-5.793-4.082-12.587-2.686c0,0-4.077-1.136-8.822,10.46c0,0,4.418-10.687,4.775-16.631c0,0-0.025-2.463,0.181-4.109  c0,0-7.09,5.128-6.737,14.958c-0.291-2.599-1.804-8.885-9.628-10.001c0,0-1.053,1.69,0.973,4.206c0,0-0.846-0.525-4.093-0.659  c0,0,3.747,4.976,8.288,8.463c-1.583-1.169-7.151-4.853-13.321-3.844c0,0,3.223,3.459,6.914,5.133c0,0-1.646-0.205-2.949,2.854  c0,0,7.144-0.409,10.204,1.462c0,0-16.56-2.603-20.346,7.316l-0.249,1.37c0,0,7.279,0.991,11.323-2.138c0,0-3.258,2.716-2.048,10.68  c0,0,5.71-4.54,8.539-8.706c0,0-4.595,7.871-1.37,15.978c0,0,3.243-5.463,5.509-11.141c-1.053,19.018,7.601,51.228,7.601,51.228  l1.741-0.382c0,0-5.338-22.186-7.223-36.588c-1.555-11.898,0.398-20.154,1.125-22.667l0.111,0.067c0,0,6.915,5.131,9.76,16.149  c0,0,4.225-12.459-4.61-18.89C56.154,31.269,70.537,35.653,74.304,43.008z"></path>
</svg>